<?xml version="1.0" encoding="iso-8859-1"?>
<!-- Generator: Adobe Illustrator 19.1.0, SVG Export Plug-In . SVG Version: 6.00 Build 0)  -->
<svg version="1.1" id="Capa_1" xmlns="http://www.w3.org/2000/svg" xmlns:xlink="http://www.w3.org/1999/xlink" x="0px" y="0px"
	 viewBox="0 0 40 40" style="enable-background:new 0 0 40 40;" xml:space="preserve">
<g id="reload_1_">
	<g>
		<path d="M20,36c-5.308,0-10.381-2.751-13-7h8v-4H1v14h4v-6c3.439,4.483,8.965,7,15,7c10.365,0,19-8.523,19-19h-4
			C35,29.271,28.183,36,20,36z M35,1l0,6.382C31.56,2.899,26.035,0,20,0C9.635,0,1,8.523,1,19h4c0-8.271,6.817-15,15-15
			c5.308,0,10.381,2.751,13,7h-8v4h14V1H35z"/>
	</g>
</g>
<g>
</g>
<g>
</g>
<g>
</g>
<g>
</g>
<g>
</g>
<g>
</g>
<g>
</g>
<g>
</g>
<g>
</g>
<g>
</g>
<g>
</g>
<g>
</g>
<g>
</g>
<g>
</g>
<g>
</g>
</svg>
